<svg xmlns="http://www.w3.org/2000/svg" width="1024" height="1024" viewBox="0 0 1024 1024">
  <g transform="translate(512,512) scale(0.66) translate(-512,-512)">
    <g transform="rotate(115 512 512)">
      <circle cx="512" cy="512" r="450.56" fill="none" stroke="#FFFFFF" stroke-width="24.576" stroke-linecap="round" stroke-dasharray="2457.6 4096"></circle>
    </g>
    <g transform="translate(512 440.32) scale(2)">
      <path d="M 0 140 C 30 110, -30 60, 10 20 C 40 -10, -20 -50, 30 -90" stroke="#FFFFFF" stroke-width="20" fill="none" stroke-linecap="round" stroke-linejoin="round"></path>
      <ellipse cx="-70" cy="40" rx="80" ry="38" fill="#FFFFFF"></ellipse><ellipse cx="-90" cy="50" rx="40" ry="20" fill="#FFFFFF"></ellipse><ellipse cx="80" cy="-15" rx="75" ry="36" fill="#FFFFFF"></ellipse><ellipse cx="100" cy="-5" rx="35" ry="18" fill="#FFFFFF"></ellipse><ellipse cx="30" cy="-95" rx="62" ry="32" fill="#FFFFFF"></ellipse><ellipse cx="50" cy="-88" rx="28" ry="14" fill="#FFFFFF"></ellipse>
      <rect x="-120" y="140" width="240" height="14" rx="2" fill="#FFFFFF"></rect>
      <path d="M -110 154 L 110 154 L 92 200 L -92 200 Z" fill="#FFFFFF"></path>
      <rect x="-85" y="200" width="22" height="14" fill="#FFFFFF"></rect>
      <rect x="63" y="200" width="22" height="14" fill="#FFFFFF"></rect>
    </g>
  </g>
</svg>
