<svg xmlns="http://www.w3.org/2000/svg" width="1024" height="1024" viewBox="0 0 1024 1024">
  <defs><clipPath id="c"><rect width="1024" height="1024" rx="225.28"></rect></clipPath></defs>
  <g clip-path="url(#c)">
    <rect width="1024" height="1024" fill="#F7F3E8"></rect>
    <defs><pattern id="g1" width="14" height="14" patternUnits="userSpaceOnUse" patternTransform="rotate(45)">
  <line x1="0" y1="0" x2="0" y2="14" stroke="#5A4637" stroke-opacity="0.06" stroke-width="1"></line>
</pattern></defs><rect width="1024" height="1024" fill="url(#g1)"></rect>
  <g transform="rotate(115 512 512)">
    <circle cx="512" cy="512" r="450.56" fill="none" stroke="#1F3A2E" stroke-width="24.576" stroke-linecap="round" stroke-dasharray="2457.6 4096"></circle>
  </g>
  <g transform="translate(512 440.32) scale(2)">
    <path d="M 0 140 C 30 110, -30 60, 10 20 C 40 -10, -20 -50, 30 -90" stroke="#3D2F25" stroke-width="20" fill="none" stroke-linecap="round" stroke-linejoin="round"></path>
    <ellipse cx="-70" cy="40" rx="80" ry="38" fill="#1F3A2E"></ellipse><ellipse cx="-90" cy="50" rx="40" ry="20" fill="#142822" opacity="0.55"></ellipse><ellipse cx="80" cy="-15" rx="75" ry="36" fill="#1F3A2E"></ellipse><ellipse cx="100" cy="-5" rx="35" ry="18" fill="#142822" opacity="0.55"></ellipse><ellipse cx="30" cy="-95" rx="62" ry="32" fill="#1F3A2E"></ellipse><ellipse cx="50" cy="-88" rx="28" ry="14" fill="#142822" opacity="0.55"></ellipse>
    <rect x="-120" y="140" width="240" height="14" rx="2" fill="#5A4637"></rect>
    <path d="M -110 154 L 110 154 L 92 200 L -92 200 Z" fill="#5A4637"></path>
    <rect x="-85" y="200" width="22" height="14" fill="#5A4637"></rect>
    <rect x="63" y="200" width="22" height="14" fill="#5A4637"></rect>
  </g>
  </g>
</svg>